<svg width="16" height="17" viewBox="0 0 16 17" fill="none" xmlns="http://www.w3.org/2000/svg">
<path d="M12.6631 7.69371H4.75642L7.17642 4.78704C7.28958 4.65089 7.34402 4.47537 7.32777 4.29909C7.31151 4.12281 7.2259 3.9602 7.08975 3.84704C6.95361 3.73388 6.77809 3.67944 6.6018 3.69569C6.42552 3.71195 6.26291 3.79756 6.14975 3.93371L2.81642 7.93371C2.79399 7.96552 2.77394 7.99895 2.75642 8.03371C2.75642 8.06704 2.75642 8.08704 2.70975 8.12037C2.67954 8.19681 2.66371 8.27818 2.66309 8.36037C2.66371 8.44257 2.67954 8.52393 2.70975 8.60037C2.70975 8.63371 2.70975 8.65371 2.75642 8.68704C2.77394 8.7218 2.79399 8.75522 2.81642 8.78704L6.14975 12.787C6.21243 12.8623 6.29093 12.9228 6.37965 12.9643C6.46837 13.0058 6.56515 13.0272 6.66309 13.027C6.81885 13.0273 6.96981 12.9731 7.08975 12.8737C7.15726 12.8177 7.21306 12.749 7.25396 12.6714C7.29486 12.5939 7.32006 12.509 7.32811 12.4217C7.33616 12.3344 7.32691 12.2463 7.30088 12.1626C7.27485 12.0788 7.23255 12.0011 7.17642 11.9337L4.75642 9.02704H12.6631C12.8399 9.02704 13.0095 8.9568 13.1345 8.83178C13.2595 8.70675 13.3298 8.53718 13.3298 8.36037C13.3298 8.18356 13.2595 8.01399 13.1345 7.88897C13.0095 7.76394 12.8399 7.69371 12.6631 7.69371Z" fill="#ffffff"/>
</svg>
