<svg width="13" height="14" viewBox="0 0 13 14" fill="none" xmlns="http://www.w3.org/2000/svg">
    <path d="M4.60449 8.64233C4.60449 9.68233 5.46033 10.5382 6.50033 10.5382C7.54033 10.5382 8.39616 9.68233 8.39616 8.64233" stroke="#90A3BF" stroke-width="1.5" stroke-miterlimit="10" stroke-linecap="round" stroke-linejoin="round"/>
    <path d="M4.77236 2.00684L2.81152 3.97309" stroke="#90A3BF" stroke-width="1.5" stroke-miterlimit="10" stroke-linecap="round" stroke-linejoin="round"/>
    <path d="M8.22754 2.00684L10.1884 3.97309" stroke="#90A3BF" stroke-width="1.5" stroke-miterlimit="10" stroke-linecap="round" stroke-linejoin="round"/>
    <path d="M1.08301 5.17562C1.08301 4.17354 1.61926 4.09229 2.28551 4.09229H10.7138C11.3801 4.09229 11.9163 4.17354 11.9163 5.17562C11.9163 6.3402 11.3801 6.25895 10.7138 6.25895H2.28551C1.61926 6.25895 1.08301 6.3402 1.08301 5.17562Z" stroke="#90A3BF" stroke-width="1.5"/>
    <path d="M1.89551 6.34033L2.65926 11.0203C2.83259 12.0712 3.24967 12.8403 4.79884 12.8403H8.06509C9.74967 12.8403 9.99884 12.1037 10.1938 11.0853L11.1038 6.34033" stroke="#90A3BF" stroke-width="1.5" stroke-linecap="round"/>
</svg>
