<svg width="22" height="22" viewBox="0 0 22 22" fill="none" xmlns="http://www.w3.org/2000/svg">
<rect width="22" height="22" rx="11" fill="#15B898" fill-opacity="0.1"/>
<path d="M7.02784 7.72151C6.91701 7.72151 6.80034 7.67484 6.71867 7.59318C6.54951 7.42401 6.54951 7.14401 6.71867 6.97484L8.83617 4.85734C9.00534 4.68818 9.28534 4.68818 9.45451 4.85734C9.62367 5.02651 9.62367 5.30651 9.45451 5.47568L7.33701 7.59318C7.24951 7.67484 7.13867 7.72151 7.02784 7.72151Z" fill="#02B290"/>
<path d="M14.9725 7.72151C14.8617 7.72151 14.7508 7.68068 14.6633 7.59318L12.5458 5.47568C12.3767 5.30651 12.3767 5.02651 12.5458 4.85734C12.715 4.68818 12.995 4.68818 13.1642 4.85734L15.2817 6.97484C15.4508 7.14401 15.4508 7.42401 15.2817 7.59318C15.2 7.67484 15.0833 7.72151 14.9725 7.72151Z" fill="#02B290"/>
<path d="M15.7895 10.1829C15.7487 10.1829 15.7078 10.1829 15.667 10.1829H15.5328H6.33366C5.92533 10.1888 5.45866 10.1888 5.12033 9.85044C4.85199 9.58794 4.72949 9.17961 4.72949 8.57878C4.72949 6.97461 5.90199 6.97461 6.46199 6.97461H15.5387C16.0987 6.97461 17.2712 6.97461 17.2712 8.57878C17.2712 9.18544 17.1487 9.58794 16.8803 9.85044C16.577 10.1538 16.1687 10.1829 15.7895 10.1829ZM6.46199 9.30794H15.6728C15.9353 9.31378 16.1803 9.31378 16.262 9.23211C16.3028 9.19128 16.3903 9.05128 16.3903 8.57878C16.3903 7.91961 16.227 7.84961 15.5328 7.84961H6.46199C5.76783 7.84961 5.60449 7.91961 5.60449 8.57878C5.60449 9.05128 5.69783 9.19128 5.73283 9.23211C5.81449 9.30794 6.06533 9.30794 6.32199 9.30794H6.46199Z" fill="#02B290"/>
<path d="M9.69336 14.6753C9.45419 14.6753 9.25586 14.477 9.25586 14.2378V12.167C9.25586 11.9278 9.45419 11.7295 9.69336 11.7295C9.93253 11.7295 10.1309 11.9278 10.1309 12.167V14.2378C10.1309 14.4828 9.93253 14.6753 9.69336 14.6753Z" fill="#02B290"/>
<path d="M12.377 14.6753C12.1378 14.6753 11.9395 14.477 11.9395 14.2378V12.167C11.9395 11.9278 12.1378 11.7295 12.377 11.7295C12.6161 11.7295 12.8145 11.9278 12.8145 12.167V14.2378C12.8145 14.4828 12.6161 14.6753 12.377 14.6753Z" fill="#02B290"/>
<path d="M12.6856 17.2709H9.16811C7.07978 17.2709 6.61311 16.0284 6.43228 14.9493L5.60978 9.90343C5.56894 9.66427 5.73228 9.4426 5.97144 9.40177C6.21061 9.36093 6.43228 9.52427 6.47311 9.76343L7.29561 14.8034C7.46478 15.8359 7.81478 16.3959 9.16811 16.3959H12.6856C14.1848 16.3959 14.3539 15.8709 14.5464 14.8559L15.5264 9.75177C15.5731 9.5126 15.8006 9.3551 16.0398 9.4076C16.2789 9.45427 16.4306 9.68177 16.3839 9.92093L15.4039 15.0251C15.1764 16.2093 14.7973 17.2709 12.6856 17.2709Z" fill="#02B290"/>
</svg>
