<svg width="22" height="22" viewBox="0 0 22 22" fill="none" xmlns="http://www.w3.org/2000/svg">
<rect width="22" height="22" rx="11" fill="#1B84FF" fill-opacity="0.05"/>
<path d="M9.61133 13.3335L10.4863 14.2085L12.3822 12.4585" stroke="#1B84FF" stroke-linecap="round" stroke-linejoin="round"/>
<path d="M9.13901 5.1665L7.02734 7.284" stroke="#1B84FF" stroke-miterlimit="10" stroke-linecap="round" stroke-linejoin="round"/>
<path d="M12.8604 5.1665L14.972 7.284" stroke="#1B84FF" stroke-miterlimit="10" stroke-linecap="round" stroke-linejoin="round"/>
<path d="M5.16699 8.57926C5.16699 7.5001 5.74449 7.4126 6.46199 7.4126H15.5387C16.2562 7.4126 16.8337 7.5001 16.8337 8.57926C16.8337 9.83343 16.2562 9.74593 15.5387 9.74593H6.46199C5.74449 9.74593 5.16699 9.83343 5.16699 8.57926Z" stroke="#1B84FF"/>
<path d="M6.04199 9.8335L6.86449 14.8735C7.05116 16.0052 7.50033 16.8335 9.16866 16.8335H12.6862C14.5003 16.8335 14.7687 16.0402 14.9787 14.9435L15.9587 9.8335" stroke="#1B84FF" stroke-linecap="round"/>
</svg>
