<svg width="17" height="17" viewBox="0 0 17 17" fill="none" xmlns="http://www.w3.org/2000/svg">
<path d="M7.2279 3.63652C7.2279 3.27475 7.37162 2.92779 7.62743 2.67198C7.88324 2.41617 8.23019 2.27246 8.59196 2.27246C8.95373 2.27246 9.30068 2.41617 9.55649 2.67198C9.8123 2.92779 9.95601 3.27475 9.95601 3.63652C10.7393 4.00687 11.407 4.58339 11.8875 5.30428C12.3681 6.02516 12.6435 6.86324 12.6841 7.72868V9.77476C12.7354 10.1988 12.8856 10.6048 13.1225 10.9602C13.3595 11.3156 13.6765 11.6104 14.0482 11.8208H3.13574C3.50741 11.6104 3.82446 11.3156 4.06138 10.9602C4.2983 10.6048 4.44847 10.1988 4.4998 9.77476V7.72868C4.54042 6.86324 4.81578 6.02516 5.29637 5.30428C5.77696 4.58339 6.44466 4.00687 7.2279 3.63652" stroke="#111827" stroke-width="1.02304" stroke-linecap="round" stroke-linejoin="round"/>
<path d="M6.5459 11.8208V12.5028C6.5459 13.0455 6.76147 13.5659 7.14518 13.9496C7.5289 14.3333 8.04933 14.5489 8.59198 14.5489C9.13463 14.5489 9.65506 14.3333 10.0388 13.9496C10.4225 13.5659 10.6381 13.0455 10.6381 12.5028V11.8208" stroke="#111827" stroke-width="1.02304" stroke-linecap="round" stroke-linejoin="round"/>
</svg>
