<svg width="25" height="25" viewBox="0 0 25 25" fill="none" xmlns="http://www.w3.org/2000/svg">
<path d="M18.4414 11.5593V15.5593C18.4414 15.8193 18.4314 16.0693 18.4014 16.3093C18.1714 19.0093 16.5814 20.3493 13.6514 20.3493H13.2514C13.0014 20.3493 12.7614 20.4693 12.6114 20.6693L11.4114 22.2693C10.8814 22.9793 10.0214 22.9793 9.49142 22.2693L8.29141 20.6693C8.16141 20.4993 7.87143 20.3493 7.65143 20.3493H7.25143C4.06143 20.3493 2.46143 19.5593 2.46143 15.5593V11.5593C2.46143 8.6293 3.81143 7.0393 6.50143 6.8093C6.74143 6.7793 6.99143 6.76929 7.25143 6.76929H13.6514C16.8414 6.76929 18.4414 8.3693 18.4414 11.5593Z" stroke="black" stroke-width="1.5" stroke-miterlimit="10" stroke-linecap="round" stroke-linejoin="round"/>
<path d="M22.4415 7.5593V11.5593C22.4415 14.4993 21.0915 16.0793 18.4015 16.3093C18.4315 16.0693 18.4415 15.8193 18.4415 15.5593V11.5593C18.4415 8.3693 16.8415 6.76929 13.6515 6.76929H7.25146C6.99146 6.76929 6.74146 6.7793 6.50146 6.8093C6.73146 4.1193 8.32146 2.76929 11.2515 2.76929H17.6515C20.8415 2.76929 22.4415 4.3693 22.4415 7.5593Z" stroke="black" stroke-width="1.5" stroke-miterlimit="10" stroke-linecap="round" stroke-linejoin="round"/>
<path d="M13.9569 14.0193H13.9659" stroke="black" stroke-width="2" stroke-linecap="round" stroke-linejoin="round"/>
<path d="M10.4569 14.0193H10.4659" stroke="black" stroke-width="2" stroke-linecap="round" stroke-linejoin="round"/>
<path d="M6.95693 14.0193H6.96593" stroke="black" stroke-width="2" stroke-linecap="round" stroke-linejoin="round"/>
</svg>
