<svg width="25" height="25" viewBox="0 0 25 25" fill="none" xmlns="http://www.w3.org/2000/svg">
<path d="M18.4419 11.5593V15.5593C18.4419 15.8193 18.4319 16.0693 18.4019 16.3093C18.1719 19.0093 16.5819 20.3493 13.6519 20.3493H13.2519C13.0019 20.3493 12.7619 20.4693 12.6119 20.6693L11.4119 22.2693C10.8819 22.9793 10.0219 22.9793 9.49191 22.2693L8.2919 20.6693C8.1619 20.4993 7.87192 20.3493 7.65192 20.3493H7.25192C4.06192 20.3493 2.46191 19.5593 2.46191 15.5593V11.5593C2.46191 8.6293 3.81192 7.0393 6.50192 6.8093C6.74192 6.7793 6.99192 6.76929 7.25192 6.76929H13.6519C16.8419 6.76929 18.4419 8.3693 18.4419 11.5593Z" stroke="#A8A8A8" stroke-width="1.5" stroke-miterlimit="10" stroke-linecap="round" stroke-linejoin="round"/>
<path d="M22.442 7.5593V11.5593C22.442 14.4993 21.0919 16.0793 18.4019 16.3093C18.4319 16.0693 18.442 15.8193 18.442 15.5593V11.5593C18.442 8.3693 16.8419 6.76929 13.6519 6.76929H7.25195C6.99195 6.76929 6.74195 6.7793 6.50195 6.8093C6.73195 4.1193 8.32195 2.76929 11.252 2.76929H17.6519C20.8419 2.76929 22.442 4.3693 22.442 7.5593Z" stroke="#A8A8A8" stroke-width="1.5" stroke-miterlimit="10" stroke-linecap="round" stroke-linejoin="round"/>
<path d="M13.9574 14.0193H13.9664" stroke="#A8A8A8" stroke-width="2" stroke-linecap="round" stroke-linejoin="round"/>
<path d="M10.4574 14.0193H10.4664" stroke="#A8A8A8" stroke-width="2" stroke-linecap="round" stroke-linejoin="round"/>
<path d="M6.95741 14.0193H6.96641" stroke="#A8A8A8" stroke-width="2" stroke-linecap="round" stroke-linejoin="round"/>
</svg>
