<svg width="30" height="59" viewBox="0 0 30 59" fill="none" xmlns="http://www.w3.org/2000/svg">
<circle cx="15" cy="15" r="15" fill="#EC4040"/>
<rect x="14" y="30" width="2" height="20" fill="#EC4040"/>
<path d="M20.2784 13.4375H17.7898C17.7443 13.1155 17.6515 12.8295 17.5114 12.5795C17.3712 12.3258 17.1913 12.1098 16.9716 11.9318C16.7519 11.7538 16.4981 11.6174 16.2102 11.5227C15.9261 11.428 15.6174 11.3807 15.2841 11.3807C14.6818 11.3807 14.1572 11.5303 13.7102 11.8295C13.2633 12.125 12.9167 12.5568 12.6705 13.125C12.4242 13.6894 12.3011 14.375 12.3011 15.1818C12.3011 16.0114 12.4242 16.7083 12.6705 17.2727C12.9205 17.8371 13.2689 18.2633 13.7159 18.5511C14.1629 18.839 14.6799 18.983 15.267 18.983C15.5966 18.983 15.9015 18.9394 16.1818 18.8523C16.4659 18.7652 16.7178 18.6383 16.9375 18.4716C17.1572 18.3011 17.339 18.0947 17.483 17.8523C17.6307 17.6098 17.733 17.3333 17.7898 17.0227L20.2784 17.0341C20.214 17.5682 20.053 18.0833 19.7955 18.5795C19.5417 19.072 19.1989 19.5133 18.767 19.9034C18.339 20.2898 17.8277 20.5966 17.233 20.8239C16.642 21.0473 15.9735 21.1591 15.2273 21.1591C14.1894 21.1591 13.2614 20.9242 12.4432 20.4545C11.6288 19.9848 10.9848 19.3049 10.5114 18.4148C10.0417 17.5246 9.80682 16.447 9.80682 15.1818C9.80682 13.9129 10.0455 12.8333 10.5227 11.9432C11 11.053 11.6477 10.375 12.4659 9.90909C13.2841 9.43939 14.2045 9.20455 15.2273 9.20455C15.9015 9.20455 16.5265 9.29924 17.1023 9.48864C17.6818 9.67803 18.1951 9.95455 18.642 10.3182C19.089 10.678 19.4527 11.1193 19.733 11.642C20.017 12.1648 20.1989 12.7633 20.2784 13.4375Z" fill="white"/>
<circle cx="15" cy="54" r="4.5" fill="white" stroke="black"/>
</svg>
