<svg xmlns="http://www.w3.org/2000/svg" width="24" height="24" viewBox="0 0 24 24" fill="none">
  <path d="M12 5.34211C7.45455 5.34211 3.57273 8.12474 2 12.0526C3.57273 15.9805 7.45455 18.7632 12 18.7632C16.5455 18.7632 20.4273 15.9805 22 12.0526C20.4273 8.12474 16.5455 5.34211 12 5.34211ZM12 16.5263C10.7945 16.5263 9.63832 16.055 8.78588 15.216C7.93344 14.377 7.45455 13.2391 7.45455 12.0526C7.45455 10.8661 7.93344 9.72824 8.78588 8.88926C9.63832 8.05028 10.7945 7.57895 12 7.57895C13.2055 7.57895 14.3617 8.05028 15.2141 8.88926C16.0666 9.72824 16.5455 10.8661 16.5455 12.0526C16.5455 13.2391 16.0666 14.377 15.2141 15.216C14.3617 16.055 13.2055 16.5263 12 16.5263ZM12 9.36842C11.2767 9.36842 10.583 9.65122 10.0715 10.1546C9.56006 10.658 9.27273 11.3407 9.27273 12.0526C9.27273 12.7645 9.56006 13.4473 10.0715 13.9507C10.583 14.454 11.2767 14.7368 12 14.7368C12.7233 14.7368 13.417 14.454 13.9285 13.9507C14.4399 13.4473 14.7273 12.7645 14.7273 12.0526C14.7273 11.3407 14.4399 10.658 13.9285 10.1546C13.417 9.65122 12.7233 9.36842 12 9.36842Z" fill="#95B29B"/>
</svg>
