<svg width="26" height="27" viewBox="0 0 26 27" fill="none" xmlns="http://www.w3.org/2000/svg">
<g filter="url(#filter0_bdi_1546_10605)">
<path d="M20.0621 22.1182C18.1077 24.0725 13.1028 22.2362 8.88327 18.0166C4.66372 13.7971 2.82739 8.79218 4.7817 6.83785L6.06847 5.55109C6.9568 4.66276 8.42054 4.68624 9.33784 5.60353L11.3309 7.59662C12.2482 8.51392 12.2717 9.97766 11.3834 10.866L11.107 11.1424C10.6274 11.622 10.5804 12.3957 11.0261 12.9358C11.456 13.4567 11.9194 13.9755 12.4219 14.478C12.9244 14.9805 13.4432 15.4439 13.9641 15.8738C14.5042 16.3195 15.2779 16.2725 15.7575 15.7929L16.0339 15.5165C16.9222 14.6282 18.386 14.6517 19.3033 15.569L21.2964 17.5621C22.2137 18.4794 22.2371 19.9431 21.3488 20.8314L20.0621 22.1182Z" fill="url(#paint0_linear_1546_10605)" shape-rendering="crispEdges"/>
<path d="M19.9737 22.0298C19.0516 22.9519 17.3784 23.0039 15.3652 22.2653C13.3628 21.5306 11.0716 20.0282 8.97166 17.9282C6.87174 15.8283 5.36933 13.5371 4.63464 11.5347C3.89598 9.52152 3.94803 7.84831 4.87009 6.92624L6.15686 5.63947C6.99372 4.80261 8.37827 4.82075 9.24945 5.69192L11.2425 7.68501C12.1137 8.55618 12.1318 9.94074 11.295 10.7776L11.0186 11.054C10.4937 11.5788 10.4427 12.4252 10.9297 13.0153C11.3617 13.5388 11.8278 14.0607 12.3335 14.5664C12.8392 15.0721 13.3611 15.5382 13.8846 15.9702C14.4747 16.4572 15.3211 16.4062 15.8459 15.8813L16.1223 15.6049C16.9592 14.7681 18.3437 14.7862 19.2149 15.6574L21.208 17.6505C22.0792 18.5216 22.0973 19.9062 21.2604 20.743L19.9737 22.0298Z" stroke="url(#paint1_linear_1546_10605)" stroke-opacity="0.7" stroke-width="0.25" shape-rendering="crispEdges"/>
</g>
<g filter="url(#filter1_d_1546_10605)">
<path d="M18.6262 10.6506C18.3822 10.0554 18.0186 9.4978 17.5353 9.01453C17.0793 8.55855 16.5572 8.20908 15.9997 7.96612" stroke="#3B68FF" stroke-width="1.5" stroke-linecap="round"/>
</g>
<g filter="url(#filter2_d_1546_10605)">
<path d="M16.0002 4.56331C17.3348 5.04682 18.587 5.82356 19.657 6.89355C20.7539 7.99039 21.5426 9.27873 22.0231 10.651" stroke="#3B68FF" stroke-width="1.5" stroke-linecap="round"/>
</g>
<defs>
<filter id="filter0_bdi_1546_10605" x="0" y="0.899902" width="26" height="26" filterUnits="userSpaceOnUse" color-interpolation-filters="sRGB">
<feFlood flood-opacity="0" result="BackgroundImageFix"/>
<feGaussianBlur in="BackgroundImageFix" stdDeviation="1"/>
<feComposite in2="SourceAlpha" operator="in" result="effect1_backgroundBlur_1546_10605"/>
<feColorMatrix in="SourceAlpha" type="matrix" values="0 0 0 0 0 0 0 0 0 0 0 0 0 0 0 0 0 0 127 0" result="hardAlpha"/>
<feOffset/>
<feGaussianBlur stdDeviation="2"/>
<feComposite in2="hardAlpha" operator="out"/>
<feColorMatrix type="matrix" values="0 0 0 0 0.231373 0 0 0 0 0.407843 0 0 0 0 1 0 0 0 0.1 0"/>
<feBlend mode="normal" in2="effect1_backgroundBlur_1546_10605" result="effect2_dropShadow_1546_10605"/>
<feBlend mode="normal" in="SourceGraphic" in2="effect2_dropShadow_1546_10605" result="shape"/>
<feColorMatrix in="SourceAlpha" type="matrix" values="0 0 0 0 0 0 0 0 0 0 0 0 0 0 0 0 0 0 127 0" result="hardAlpha"/>
<feOffset/>
<feGaussianBlur stdDeviation="1.5"/>
<feComposite in2="hardAlpha" operator="arithmetic" k2="-1" k3="1"/>
<feColorMatrix type="matrix" values="0 0 0 0 0.231373 0 0 0 0 0.407843 0 0 0 0 1 0 0 0 0.38 0"/>
<feBlend mode="normal" in2="shape" result="effect3_innerShadow_1546_10605"/>
</filter>
<filter id="filter1_d_1546_10605" x="13.249" y="5.21582" width="8.12695" height="8.18506" filterUnits="userSpaceOnUse" color-interpolation-filters="sRGB">
<feFlood flood-opacity="0" result="BackgroundImageFix"/>
<feColorMatrix in="SourceAlpha" type="matrix" values="0 0 0 0 0 0 0 0 0 0 0 0 0 0 0 0 0 0 127 0" result="hardAlpha"/>
<feOffset/>
<feGaussianBlur stdDeviation="1"/>
<feComposite in2="hardAlpha" operator="out"/>
<feColorMatrix type="matrix" values="0 0 0 0 0.231373 0 0 0 0 0.407843 0 0 0 0 1 0 0 0 0.35 0"/>
<feBlend mode="normal" in2="BackgroundImageFix" result="effect1_dropShadow_1546_10605"/>
<feBlend mode="normal" in="SourceGraphic" in2="effect1_dropShadow_1546_10605" result="shape"/>
</filter>
<filter id="filter2_d_1546_10605" x="13.25" y="1.81299" width="11.5234" height="11.5881" filterUnits="userSpaceOnUse" color-interpolation-filters="sRGB">
<feFlood flood-opacity="0" result="BackgroundImageFix"/>
<feColorMatrix in="SourceAlpha" type="matrix" values="0 0 0 0 0 0 0 0 0 0 0 0 0 0 0 0 0 0 127 0" result="hardAlpha"/>
<feOffset/>
<feGaussianBlur stdDeviation="1"/>
<feComposite in2="hardAlpha" operator="out"/>
<feColorMatrix type="matrix" values="0 0 0 0 0.231373 0 0 0 0 0.407843 0 0 0 0 1 0 0 0 0.35 0"/>
<feBlend mode="normal" in2="BackgroundImageFix" result="effect1_dropShadow_1546_10605"/>
<feBlend mode="normal" in="SourceGraphic" in2="effect1_dropShadow_1546_10605" result="shape"/>
</filter>
<linearGradient id="paint0_linear_1546_10605" x1="-1.85" y1="-2.3001" x2="31.45" y2="27.3999" gradientUnits="userSpaceOnUse">
<stop stop-color="#344EA6" stop-opacity="0.26"/>
<stop offset="0.505208" stop-color="#587EFF" stop-opacity="0.12"/>
<stop offset="1" stop-color="#829EFF" stop-opacity="0.04"/>
</linearGradient>
<linearGradient id="paint1_linear_1546_10605" x1="4.45" y1="7.5999" x2="20.2" y2="21.0999" gradientUnits="userSpaceOnUse">
<stop stop-color="white" stop-opacity="0.15"/>
<stop offset="1" stop-color="white" stop-opacity="0.44"/>
</linearGradient>
</defs>
</svg>
