<svg width="18" height="16" viewBox="0 0 18 16" fill="none" xmlns="http://www.w3.org/2000/svg">
<path d="M1.42383 10.666C1.42383 8.78068 1.42383 7.83735 2.04952 7.25202C2.67449 6.66602 3.68172 6.66602 5.69474 6.66602H11.3893C13.4023 6.66602 14.4095 6.66602 15.0345 7.25202C15.6602 7.83735 15.6602 8.78068 15.6602 10.666C15.6602 12.5513 15.6602 13.4947 15.0345 14.08C14.4095 14.666 13.4023 14.666 11.3893 14.666H5.69474C3.68172 14.666 2.67449 14.666 2.04952 14.08C1.42383 13.4947 1.42383 12.5513 1.42383 10.666Z" stroke="#0B0B0B"/>
<path d="M4.271 6.66634V5.33301C4.271 4.27214 4.72097 3.25473 5.52192 2.50458C6.32287 1.75444 7.4092 1.33301 8.54191 1.33301C9.67463 1.33301 10.761 1.75444 11.5619 2.50458C12.3629 3.25473 12.8128 4.27214 12.8128 5.33301V6.66634" stroke="#0B0B0B" stroke-linecap="round"/>
<path d="M5.69482 10.666H5.70123M8.5357 10.666H8.5421M11.383 10.666H11.3894" stroke="#0B0B0B" stroke-linecap="round" stroke-linejoin="round"/>
</svg>
