<svg width="18" height="16" viewBox="0 0 18 16" fill="none" xmlns="http://www.w3.org/2000/svg">
<path d="M8.54185 15.1663C7.98663 15.1663 7.44565 14.8997 7.0755 14.433L6.35656 13.533C6.20708 13.3463 6.00777 13.2397 5.79423 13.2263C5.58068 13.2197 5.36713 13.3063 5.1963 13.473L4.79056 13.133L5.18206 13.473C4.15704 14.4997 3.36692 14.4197 2.98966 14.2797C2.60528 14.1397 1.95752 13.6797 1.95752 12.1997V4.69301C1.95752 1.73301 2.86865 0.833008 5.85117 0.833008H11.2325C14.215 0.833008 15.1262 1.73301 15.1262 4.69301V12.1997C15.1262 13.673 14.4784 14.133 14.094 14.2797C13.7168 14.4197 12.9338 14.4997 11.9016 13.473C11.7308 13.2997 11.5173 13.2063 11.2966 13.2263C11.083 13.2397 10.8766 13.3463 10.7271 13.533L10.0082 14.433C9.63805 14.8997 9.09707 15.1663 8.54185 15.1663ZM5.75152 12.2197C5.77999 12.2197 5.81558 12.2197 5.84405 12.2197C6.3708 12.2463 6.86907 12.5063 7.20363 12.9263L7.92257 13.8263C8.27136 14.2597 8.80522 14.2597 9.15401 13.8263L9.87295 12.9263C10.2146 12.5063 10.7058 12.2463 11.2396 12.2197C11.7664 12.193 12.2931 12.3997 12.6775 12.7863C13.2185 13.3263 13.5673 13.393 13.6954 13.3463C13.8663 13.2797 14.0513 12.893 14.0513 12.1997V4.69301C14.0513 2.28634 13.6029 1.83301 11.2254 1.83301H5.85117C3.4737 1.83301 3.02525 2.28634 3.02525 4.69301V12.1997C3.02525 12.8997 3.21032 13.2863 3.38116 13.3463C3.50217 13.393 3.85808 13.3263 4.39906 12.7863C4.78344 12.4197 5.26036 12.2197 5.75152 12.2197Z" fill="#0B0B0B"/>
<path d="M11.5529 7.83301H7.63787C7.34602 7.83301 7.104 7.60634 7.104 7.33301C7.104 7.05967 7.34602 6.83301 7.63787 6.83301H11.5529C11.8447 6.83301 12.0867 7.05967 12.0867 7.33301C12.0867 7.60634 11.8447 7.83301 11.5529 7.83301Z" fill="#0B0B0B"/>
<path d="M11.5529 5.16699H7.63787C7.34602 5.16699 7.104 4.94033 7.104 4.66699C7.104 4.39366 7.34602 4.16699 7.63787 4.16699H11.5529C11.8447 4.16699 12.0867 4.39366 12.0867 4.66699C12.0867 4.94033 11.8447 5.16699 11.5529 5.16699Z" fill="#0B0B0B"/>
<path d="M5.53799 5.33333C5.14649 5.33333 4.82617 5.03333 4.82617 4.66667C4.82617 4.3 5.14649 4 5.53799 4C5.92949 4 6.24981 4.3 6.24981 4.66667C6.24981 5.03333 5.92949 5.33333 5.53799 5.33333Z" fill="#0B0B0B"/>
<path d="M5.53799 8.00033C5.14649 8.00033 4.82617 7.70033 4.82617 7.33366C4.82617 6.96699 5.14649 6.66699 5.53799 6.66699C5.92949 6.66699 6.24981 6.96699 6.24981 7.33366C6.24981 7.70033 5.92949 8.00033 5.53799 8.00033Z" fill="#0B0B0B"/>
</svg>
