<svg width="17" height="17" viewBox="0 0 17 17" fill="none" xmlns="http://www.w3.org/2000/svg">
<path fill-rule="evenodd" clip-rule="evenodd" d="M14.0603 7.75872L12.9056 11.2226C12.0915 13.6649 11.6845 14.8861 11.0876 15.2331C10.5197 15.5632 9.81841 15.5632 9.25056 15.2331C8.65365 14.8861 8.2466 13.6649 7.43251 11.2226C7.30179 10.8305 7.23643 10.6344 7.12672 10.4705C7.02039 10.3117 6.88395 10.1753 6.72512 10.0689C6.56123 9.95921 6.36516 9.89385 5.97301 9.76313C3.53072 8.94904 2.30957 8.54199 1.96256 7.94508C1.63244 7.37723 1.63244 6.67591 1.96256 6.10806C2.30957 5.51115 3.53072 5.1041 5.97301 4.29L9.43692 3.13537C12.4629 2.12669 13.976 1.62236 14.7746 2.42102C15.5733 3.21969 15.0689 4.7327 14.0603 7.75872ZM9.1453 8.01527C8.94937 7.81715 8.95114 7.49772 9.14925 7.30178L11.9816 4.50062C12.1798 4.30469 12.4992 4.30646 12.6951 4.50458C12.8911 4.70269 12.8893 5.02213 12.6912 5.21806L9.85878 8.01922C9.66067 8.21516 9.34123 8.21339 9.1453 8.01527Z" fill="white"/>
</svg>
