<svg width="18" height="16" viewBox="0 0 18 16" fill="none" xmlns="http://www.w3.org/2000/svg">
<path d="M8.54188 10.5C7.06842 10.5 5.87256 9.38 5.87256 8C5.87256 6.62 7.06842 5.5 8.54188 5.5C10.0153 5.5 11.2112 6.62 11.2112 8C11.2112 9.38 10.0153 10.5 8.54188 10.5ZM8.54188 6.5C7.65923 6.5 6.94029 7.17333 6.94029 8C6.94029 8.82667 7.65923 9.5 8.54188 9.5C9.42454 9.5 10.1435 8.82667 10.1435 8C10.1435 7.17333 9.42454 6.5 8.54188 6.5Z" fill="#0B0B0B"/>
<path d="M10.8266 14.7932C10.6772 14.7932 10.5277 14.7732 10.3782 14.7399C9.93687 14.6265 9.56673 14.3665 9.33183 13.9999L9.24641 13.8665C8.82643 13.1865 8.24986 13.1865 7.82989 13.8665L7.75159 13.9932C7.51669 14.3665 7.14654 14.6332 6.70521 14.7399C6.25677 14.8532 5.79408 14.7932 5.40258 14.5732L4.17825 13.9132C3.74404 13.6799 3.43084 13.2999 3.2956 12.8399C3.16747 12.3799 3.23153 11.9065 3.48067 11.4999C3.6871 11.1599 3.74404 10.8532 3.62304 10.6599C3.50203 10.4665 3.19594 10.3532 2.77597 10.3532C1.73671 10.3532 0.889648 9.55987 0.889648 8.58653V7.4132C0.889648 6.43987 1.73671 5.64653 2.77597 5.64653C3.19594 5.64653 3.50203 5.5332 3.62304 5.33987C3.74404 5.14653 3.69422 4.83987 3.48067 4.49987C3.23153 4.0932 3.16747 3.6132 3.2956 3.15987C3.42373 2.69987 3.73693 2.31987 4.17825 2.08653L5.4097 1.42653C6.21406 0.979865 7.27467 1.23987 7.75871 2.00653L7.84412 2.13987C8.2641 2.81987 8.84067 2.81987 9.26064 2.13987L9.33894 2.0132C9.82298 1.23987 10.8836 0.979865 11.6951 1.4332L12.9194 2.0932C13.3536 2.32653 13.6668 2.70653 13.8021 3.16653C13.9302 3.62653 13.8661 4.09987 13.617 4.50653C13.4106 4.84653 13.3536 5.1532 13.4746 5.34653C13.5956 5.53987 13.9017 5.6532 14.3217 5.6532C15.3609 5.6532 16.208 6.44653 16.208 7.41987V8.5932C16.208 9.56653 15.3609 10.3599 14.3217 10.3599C13.9017 10.3599 13.5956 10.4732 13.4746 10.6665C13.3536 10.8599 13.4034 11.1665 13.617 11.5065C13.8661 11.9132 13.9373 12.3932 13.8021 12.8465C13.6739 13.3065 13.3607 13.6865 12.9194 13.9199L11.6879 14.5799C11.4175 14.7199 11.1256 14.7932 10.8266 14.7932ZM8.54171 12.3265C9.17523 12.3265 9.76604 12.6999 10.1718 13.3599L10.2501 13.4865C10.3355 13.6265 10.4779 13.7265 10.6487 13.7665C10.8195 13.8065 10.9904 13.7865 11.1327 13.7065L12.3642 13.0399C12.5493 12.9399 12.6916 12.7732 12.7486 12.5732C12.8055 12.3732 12.777 12.1665 12.6703 11.9932C12.2645 11.3399 12.2147 10.6665 12.5279 10.1532C12.8411 9.63986 13.4889 9.34653 14.3003 9.34653C14.7559 9.34653 15.1189 9.00653 15.1189 8.57987V7.40653C15.1189 6.98653 14.7559 6.63987 14.3003 6.63987C13.4889 6.63987 12.8411 6.34653 12.5279 5.8332C12.2147 5.31987 12.2645 4.64653 12.6703 3.9932C12.777 3.81987 12.8055 3.6132 12.7486 3.4132C12.6916 3.2132 12.5564 3.0532 12.3713 2.94653L11.1398 2.28653C10.8338 2.1132 10.428 2.2132 10.243 2.50653L10.1647 2.6332C9.75892 3.2932 9.16811 3.66653 8.53459 3.66653C7.90107 3.66653 7.31026 3.2932 6.90452 2.6332L6.82622 2.49987C6.64827 2.21987 6.24965 2.11987 5.94357 2.28653L4.71212 2.9532C4.52705 3.0532 4.38468 3.21987 4.32774 3.41987C4.27079 3.61987 4.29926 3.82653 4.40604 3.99987C4.81177 4.6532 4.8616 5.32653 4.5484 5.83987C4.2352 6.3532 3.58744 6.64653 2.77597 6.64653C2.32041 6.64653 1.95738 6.98653 1.95738 7.4132V8.58653C1.95738 9.00653 2.32041 9.3532 2.77597 9.3532C3.58744 9.3532 4.2352 9.64653 4.5484 10.1599C4.8616 10.6732 4.81177 11.3465 4.40604 11.9999C4.29926 12.1732 4.27079 12.3799 4.32774 12.5799C4.38468 12.7799 4.51993 12.9399 4.705 13.0465L5.93645 13.7065C6.08593 13.7932 6.26389 13.8132 6.4276 13.7732C6.59844 13.7332 6.7408 13.6265 6.83334 13.4865L6.91164 13.3599C7.31738 12.7065 7.90819 12.3265 8.54171 12.3265Z" fill="#0B0B0B"/>
</svg>
