<svg width="30" height="59" viewBox="0 0 30 59" fill="none" xmlns="http://www.w3.org/2000/svg">
<circle cx="15" cy="15" r="15" fill="#02B290"/>
<rect x="14" y="30" width="2" height="20" fill="#02B290"/>
<path d="M16.3239 12.7102C16.2784 12.2519 16.0833 11.8958 15.7386 11.642C15.3939 11.3883 14.9261 11.2614 14.3352 11.2614C13.9337 11.2614 13.5947 11.3182 13.3182 11.4318C13.0417 11.5417 12.8295 11.6951 12.6818 11.892C12.5379 12.089 12.4659 12.3125 12.4659 12.5625C12.4583 12.7708 12.5019 12.9527 12.5966 13.108C12.6951 13.2633 12.8295 13.3977 13 13.5114C13.1705 13.6212 13.3674 13.7178 13.5909 13.8011C13.8144 13.8807 14.053 13.9489 14.3068 14.0057L15.3523 14.2557C15.8598 14.3693 16.3258 14.5208 16.75 14.7102C17.1742 14.8996 17.5417 15.1326 17.8523 15.4091C18.1629 15.6856 18.4034 16.0114 18.5739 16.3864C18.7481 16.7614 18.8371 17.1913 18.8409 17.6761C18.8371 18.3883 18.6553 19.0057 18.2955 19.5284C17.9394 20.0473 17.4242 20.4508 16.75 20.7386C16.0795 21.0227 15.2708 21.1648 14.3239 21.1648C13.3845 21.1648 12.5663 21.0208 11.8693 20.733C11.1761 20.4451 10.6345 20.0189 10.2443 19.4545C9.85795 18.8864 9.6553 18.1837 9.63636 17.3466H12.017C12.0436 17.7367 12.1553 18.0625 12.3523 18.3239C12.553 18.5814 12.8201 18.7765 13.1534 18.9091C13.4905 19.0379 13.8712 19.1023 14.2955 19.1023C14.7121 19.1023 15.0739 19.0417 15.3807 18.9205C15.6913 18.7992 15.9318 18.6307 16.1023 18.4148C16.2727 18.1989 16.358 17.9508 16.358 17.6705C16.358 17.4091 16.2803 17.1894 16.125 17.0114C15.9735 16.8333 15.75 16.6818 15.4545 16.5568C15.1629 16.4318 14.8049 16.3182 14.3807 16.2159L13.1136 15.8977C12.1326 15.6591 11.358 15.286 10.7898 14.7784C10.2216 14.2708 9.93939 13.5871 9.94318 12.7273C9.93939 12.0227 10.1269 11.4072 10.5057 10.8807C10.8883 10.3542 11.4129 9.94318 12.0795 9.64773C12.7462 9.35227 13.5038 9.20455 14.3523 9.20455C15.2159 9.20455 15.9697 9.35227 16.6136 9.64773C17.2614 9.94318 17.7652 10.3542 18.125 10.8807C18.4848 11.4072 18.6705 12.017 18.6818 12.7102H16.3239Z" fill="white"/>
<circle cx="15" cy="54" r="4.5" fill="white" stroke="black"/>
</svg>
