<svg width="22" height="22" viewBox="0 0 22 22" fill="none" xmlns="http://www.w3.org/2000/svg">
<rect width="22" height="22" rx="11" fill="#02B290" fill-opacity="0.05"/>
<path d="M12.1252 6.0835V11.5002C12.1252 12.096 11.6377 12.5835 11.0418 12.5835H5.0835V9.12766C5.47891 9.59891 6.08559 9.89141 6.75726 9.87516C7.30434 9.86433 7.79725 9.65308 8.16558 9.301C8.3335 9.16016 8.47434 8.98141 8.58267 8.78641C8.77767 8.45599 8.886 8.06598 8.87516 7.65973C8.85891 7.02598 8.57725 6.46808 8.1385 6.0835H12.1252Z" stroke="#02B290" stroke-linecap="round" stroke-linejoin="round"/>
<path d="M15.9168 12.5835V14.2085C15.9168 15.1077 15.191 15.8335 14.2918 15.8335H13.7502C13.7502 15.2377 13.2627 14.7502 12.6668 14.7502C12.071 14.7502 11.5835 15.2377 11.5835 15.8335H9.41683C9.41683 15.2377 8.92933 14.7502 8.3335 14.7502C7.73766 14.7502 7.25016 15.2377 7.25016 15.8335H6.7085C5.80933 15.8335 5.0835 15.1077 5.0835 14.2085V12.5835H11.0418C11.6377 12.5835 12.1252 12.096 12.1252 11.5002V7.7085H13.1218C13.5118 7.7085 13.8693 7.91975 14.0643 8.25558L14.9906 9.87516H14.2918C13.9939 9.87516 13.7502 10.1189 13.7502 10.4168V12.0418C13.7502 12.3397 13.9939 12.5835 14.2918 12.5835H15.9168Z" stroke="#02B290" stroke-linecap="round" stroke-linejoin="round"/>
<path d="M8.33333 16.9167C8.93164 16.9167 9.41667 16.4316 9.41667 15.8333C9.41667 15.235 8.93164 14.75 8.33333 14.75C7.73502 14.75 7.25 15.235 7.25 15.8333C7.25 16.4316 7.73502 16.9167 8.33333 16.9167Z" stroke="#02B290" stroke-linecap="round" stroke-linejoin="round"/>
<path d="M12.6668 16.9167C13.2651 16.9167 13.7502 16.4316 13.7502 15.8333C13.7502 15.235 13.2651 14.75 12.6668 14.75C12.0685 14.75 11.5835 15.235 11.5835 15.8333C11.5835 16.4316 12.0685 16.9167 12.6668 16.9167Z" stroke="#02B290" stroke-linecap="round" stroke-linejoin="round"/>
<path d="M15.9167 11.5V12.5833H14.2917C13.9938 12.5833 13.75 12.3396 13.75 12.0417V10.4167C13.75 10.1187 13.9938 9.875 14.2917 9.875H14.9904L15.9167 11.5Z" stroke="#02B290" stroke-linecap="round" stroke-linejoin="round"/>
<path d="M8.87497 7.65981C8.8858 8.06606 8.77748 8.45607 8.58248 8.78649C8.47415 8.98149 8.33331 9.16025 8.16539 9.30108C7.79706 9.65316 7.30415 9.86441 6.75707 9.87524C6.0854 9.89149 5.47872 9.59899 5.0833 9.12774C5.00747 9.04649 4.94247 8.95441 4.88289 8.86233C4.67164 8.54275 4.55247 8.16359 4.54164 7.75734C4.52539 7.07484 4.82872 6.45191 5.31622 6.04566C5.68455 5.74232 6.15037 5.55274 6.65954 5.54191C7.22829 5.53108 7.74831 5.73691 8.13831 6.08358C8.57706 6.46816 8.85872 7.02606 8.87497 7.65981Z" stroke="#02B290" stroke-miterlimit="10" stroke-linecap="round" stroke-linejoin="round"/>
<path d="M5.86328 7.72459L6.41037 8.24457L7.54243 7.15039" stroke="#02B290" stroke-linecap="round" stroke-linejoin="round"/>
</svg>
