<svg width="13" height="13" viewBox="0 0 13 13" fill="none" xmlns="http://www.w3.org/2000/svg">
<path d="M8.12467 1.08325V6.49992C8.12467 7.09575 7.63717 7.58325 7.04134 7.58325H1.08301V3.24992C1.08301 2.05284 2.05259 1.08325 3.24967 1.08325H8.12467Z" stroke="#FF6E41" stroke-linecap="round" stroke-linejoin="round"/>
<path d="M11.9163 7.58325V9.20825C11.9163 10.1074 11.1905 10.8333 10.2913 10.8333H9.74967C9.74967 10.2374 9.26217 9.74992 8.66634 9.74992C8.07051 9.74992 7.58301 10.2374 7.58301 10.8333H5.41634C5.41634 10.2374 4.92884 9.74992 4.33301 9.74992C3.73717 9.74992 3.24967 10.2374 3.24967 10.8333H2.70801C1.80884 10.8333 1.08301 10.1074 1.08301 9.20825V7.58325H7.04134C7.63717 7.58325 8.12467 7.09575 8.12467 6.49992V2.70825H9.12134C9.51134 2.70825 9.86883 2.91951 10.0638 3.25534L10.9901 4.87492H10.2913C9.99342 4.87492 9.74967 5.11867 9.74967 5.41659V7.04159C9.74967 7.3395 9.99342 7.58325 10.2913 7.58325H11.9163Z" stroke="#FF6E41" stroke-linecap="round" stroke-linejoin="round"/>
<path d="M4.33333 11.9167C4.93164 11.9167 5.41667 11.4316 5.41667 10.8333C5.41667 10.235 4.93164 9.75 4.33333 9.75C3.73502 9.75 3.25 10.235 3.25 10.8333C3.25 11.4316 3.73502 11.9167 4.33333 11.9167Z" stroke="#FF6E41" stroke-linecap="round" stroke-linejoin="round"/>
<path d="M8.66634 11.9167C9.26465 11.9167 9.74967 11.4316 9.74967 10.8333C9.74967 10.235 9.26465 9.75 8.66634 9.75C8.06803 9.75 7.58301 10.235 7.58301 10.8333C7.58301 11.4316 8.06803 11.9167 8.66634 11.9167Z" stroke="#FF6E41" stroke-linecap="round" stroke-linejoin="round"/>
<path d="M11.9167 6.5V7.58333H10.2917C9.99375 7.58333 9.75 7.33958 9.75 7.04167V5.41667C9.75 5.11875 9.99375 4.875 10.2917 4.875H10.9904L11.9167 6.5Z" stroke="#FF6E41" stroke-linecap="round" stroke-linejoin="round"/>
</svg>
