<svg width="25" height="25" viewBox="0 0 25 25" fill="none" xmlns="http://www.w3.org/2000/svg">
<path d="M12.4614 14.7693H13.4614C14.5614 14.7693 15.4614 13.8693 15.4614 12.7693V2.76929H6.46143C4.96143 2.76929 3.65144 3.59927 2.97144 4.81927" stroke="black" stroke-width="1.5" stroke-linecap="round" stroke-linejoin="round"/>
<path d="M2.46143 17.7693C2.46143 19.4293 3.80143 20.7693 5.46143 20.7693H6.46143C6.46143 19.6693 7.36143 18.7693 8.46143 18.7693C9.56143 18.7693 10.4614 19.6693 10.4614 20.7693H14.4614C14.4614 19.6693 15.3614 18.7693 16.4614 18.7693C17.5614 18.7693 18.4614 19.6693 18.4614 20.7693H19.4614C21.1214 20.7693 22.4614 19.4293 22.4614 17.7693V14.7693H19.4614C18.9114 14.7693 18.4614 14.3193 18.4614 13.7693V10.7693C18.4614 10.2193 18.9114 9.76929 19.4614 9.76929H20.7514L19.0414 6.7793C18.6814 6.1593 18.0215 5.76929 17.3015 5.76929H15.4614V12.7693C15.4614 13.8693 14.5614 14.7693 13.4614 14.7693H12.4614" stroke="black" stroke-width="1.5" stroke-linecap="round" stroke-linejoin="round"/>
<path d="M8.46143 22.7693C9.566 22.7693 10.4614 21.8739 10.4614 20.7693C10.4614 19.6647 9.566 18.7693 8.46143 18.7693C7.35686 18.7693 6.46143 19.6647 6.46143 20.7693C6.46143 21.8739 7.35686 22.7693 8.46143 22.7693Z" stroke="black" stroke-width="1.5" stroke-linecap="round" stroke-linejoin="round"/>
<path d="M16.4614 22.7693C17.566 22.7693 18.4614 21.8739 18.4614 20.7693C18.4614 19.6647 17.566 18.7693 16.4614 18.7693C15.3569 18.7693 14.4614 19.6647 14.4614 20.7693C14.4614 21.8739 15.3569 22.7693 16.4614 22.7693Z" stroke="black" stroke-width="1.5" stroke-linecap="round" stroke-linejoin="round"/>
<path d="M22.4614 12.7693V14.7693H19.4614C18.9114 14.7693 18.4614 14.3193 18.4614 13.7693V10.7693C18.4614 10.2193 18.9114 9.76929 19.4614 9.76929H20.7514L22.4614 12.7693Z" stroke="black" stroke-width="1.5" stroke-linecap="round" stroke-linejoin="round"/>
<path d="M2.46143 8.76929H8.46143" stroke="black" stroke-width="1.5" stroke-linecap="round" stroke-linejoin="round"/>
<path d="M2.46143 11.7693H6.46143" stroke="black" stroke-width="1.5" stroke-linecap="round" stroke-linejoin="round"/>
<path d="M2.46143 14.7693H4.46143" stroke="black" stroke-width="1.5" stroke-linecap="round" stroke-linejoin="round"/>
</svg>
