<svg width="25" height="25" viewBox="0 0 25 25" fill="none" xmlns="http://www.w3.org/2000/svg">
<path d="M12.4617 14.7693H13.4617C14.5617 14.7693 15.4617 13.8693 15.4617 12.7693V2.76929H6.46167C4.96167 2.76929 3.65168 3.59927 2.97168 4.81927" stroke="#A8A8A8" stroke-width="1.5" stroke-linecap="round" stroke-linejoin="round"/>
<path d="M2.46191 17.7693C2.46191 19.4293 3.80191 20.7693 5.46191 20.7693H6.46191C6.46191 19.6693 7.36191 18.7693 8.46191 18.7693C9.56191 18.7693 10.4619 19.6693 10.4619 20.7693H14.4619C14.4619 19.6693 15.3619 18.7693 16.4619 18.7693C17.5619 18.7693 18.4619 19.6693 18.4619 20.7693H19.4619C21.1219 20.7693 22.4619 19.4293 22.4619 17.7693V14.7693H19.4619C18.9119 14.7693 18.4619 14.3193 18.4619 13.7693V10.7693C18.4619 10.2193 18.9119 9.76929 19.4619 9.76929H20.7519L19.0419 6.7793C18.6819 6.1593 18.0219 5.76929 17.3019 5.76929H15.4619V12.7693C15.4619 13.8693 14.5619 14.7693 13.4619 14.7693H12.4619" stroke="#A8A8A8" stroke-width="1.5" stroke-linecap="round" stroke-linejoin="round"/>
<path d="M8.46191 22.7693C9.56648 22.7693 10.4619 21.8739 10.4619 20.7693C10.4619 19.6647 9.56648 18.7693 8.46191 18.7693C7.35734 18.7693 6.46191 19.6647 6.46191 20.7693C6.46191 21.8739 7.35734 22.7693 8.46191 22.7693Z" stroke="#A8A8A8" stroke-width="1.5" stroke-linecap="round" stroke-linejoin="round"/>
<path d="M16.4619 22.7693C17.5665 22.7693 18.4619 21.8739 18.4619 20.7693C18.4619 19.6647 17.5665 18.7693 16.4619 18.7693C15.3573 18.7693 14.4619 19.6647 14.4619 20.7693C14.4619 21.8739 15.3573 22.7693 16.4619 22.7693Z" stroke="#A8A8A8" stroke-width="1.5" stroke-linecap="round" stroke-linejoin="round"/>
<path d="M22.4619 12.7693V14.7693H19.4619C18.9119 14.7693 18.4619 14.3193 18.4619 13.7693V10.7693C18.4619 10.2193 18.9119 9.76929 19.4619 9.76929H20.7519L22.4619 12.7693Z" stroke="#A8A8A8" stroke-width="1.5" stroke-linecap="round" stroke-linejoin="round"/>
<path d="M2.46191 8.76929H8.46191" stroke="#A8A8A8" stroke-width="1.5" stroke-linecap="round" stroke-linejoin="round"/>
<path d="M2.46191 11.7693H6.46191" stroke="#A8A8A8" stroke-width="1.5" stroke-linecap="round" stroke-linejoin="round"/>
<path d="M2.46191 14.7693H4.46191" stroke="#A8A8A8" stroke-width="1.5" stroke-linecap="round" stroke-linejoin="round"/>
</svg>
