<svg width="22" height="22" viewBox="0 0 22 22" fill="none" xmlns="http://www.w3.org/2000/svg">
<rect width="22" height="22" rx="11" fill="#FFCA43" fill-opacity="0.05"/>
<path d="M12.7498 5.1665V10.9998C12.7498 11.6415 12.2248 12.1665 11.5832 12.1665H5.1665V8.44483C5.59234 8.95233 6.24569 9.26734 6.96902 9.24984C7.55819 9.23817 8.08901 9.01067 8.48567 8.63151C8.66651 8.47984 8.81818 8.28733 8.93485 8.07733C9.14485 7.7215 9.2615 7.30149 9.24984 6.86399C9.23234 6.18149 8.92901 5.58067 8.45651 5.1665H12.7498Z" stroke="#FFCA43" stroke-width="0.875" stroke-linecap="round" stroke-linejoin="round"/>
<path d="M16.8332 12.1665V13.9165C16.8332 14.8848 16.0515 15.6665 15.0832 15.6665H14.4998C14.4998 15.0248 13.9748 14.4998 13.3332 14.4998C12.6915 14.4998 12.1665 15.0248 12.1665 15.6665H9.83317C9.83317 15.0248 9.30817 14.4998 8.6665 14.4998C8.02484 14.4998 7.49984 15.0248 7.49984 15.6665H6.9165C5.94817 15.6665 5.1665 14.8848 5.1665 13.9165V12.1665H11.5832C12.2248 12.1665 12.7498 11.6415 12.7498 10.9998V6.9165H13.8232C14.2432 6.9165 14.6282 7.14401 14.8382 7.50568L15.8357 9.24984H15.0832C14.7623 9.24984 14.4998 9.51234 14.4998 9.83317V11.5832C14.4998 11.904 14.7623 12.1665 15.0832 12.1665H16.8332Z" stroke="#FFCA43" stroke-width="0.875" stroke-linecap="round" stroke-linejoin="round"/>
<path d="M8.66667 16.8333C9.311 16.8333 9.83333 16.311 9.83333 15.6667C9.83333 15.0223 9.311 14.5 8.66667 14.5C8.02233 14.5 7.5 15.0223 7.5 15.6667C7.5 16.311 8.02233 16.8333 8.66667 16.8333Z" stroke="#FFCA43" stroke-width="0.875" stroke-linecap="round" stroke-linejoin="round"/>
<path d="M13.3332 16.8333C13.9775 16.8333 14.4998 16.311 14.4998 15.6667C14.4998 15.0223 13.9775 14.5 13.3332 14.5C12.6888 14.5 12.1665 15.0223 12.1665 15.6667C12.1665 16.311 12.6888 16.8333 13.3332 16.8333Z" stroke="#FFCA43" stroke-width="0.875" stroke-linecap="round" stroke-linejoin="round"/>
<path d="M16.8333 11V12.1667H15.0833C14.7625 12.1667 14.5 11.9042 14.5 11.5833V9.83333C14.5 9.5125 14.7625 9.25 15.0833 9.25H15.8358L16.8333 11Z" stroke="#FFCA43" stroke-width="0.875" stroke-linecap="round" stroke-linejoin="round"/>
<path d="M9.24967 6.91683C9.24967 7.61683 8.94052 8.241 8.45635 8.66683C8.04218 9.0285 7.50551 9.25016 6.91634 9.25016C5.62717 9.25016 4.58301 8.206 4.58301 6.91683C4.58301 6.18183 4.92134 5.52267 5.45801 5.09683C5.86051 4.776 6.36801 4.5835 6.91634 4.5835C8.20551 4.5835 9.24967 5.62766 9.24967 6.91683Z" stroke="#FFCA43" stroke-width="0.875" stroke-miterlimit="10" stroke-linecap="round" stroke-linejoin="round"/>
<path d="M7.06217 6.1875V7.0625L6.33301 7.5" stroke="#FFCA43" stroke-width="0.875" stroke-miterlimit="10" stroke-linecap="round" stroke-linejoin="round"/>
</svg>
