<svg width="22" height="22" viewBox="0 0 22 22" fill="none" xmlns="http://www.w3.org/2000/svg">
<rect width="22" height="22" rx="11" fill="#FF6E41" fill-opacity="0.05"/>
<path d="M12.1247 6.0835V11.5002C12.1247 12.096 11.6372 12.5835 11.0413 12.5835H5.08301V8.25016C5.08301 7.05308 6.05259 6.0835 7.24967 6.0835H12.1247Z" stroke="#FF6E41" stroke-linecap="round" stroke-linejoin="round"/>
<path d="M15.9163 12.5835V14.2085C15.9163 15.1077 15.1905 15.8335 14.2913 15.8335H13.7497C13.7497 15.2377 13.2622 14.7502 12.6663 14.7502C12.0705 14.7502 11.583 15.2377 11.583 15.8335H9.41634C9.41634 15.2377 8.92884 14.7502 8.33301 14.7502C7.73717 14.7502 7.24967 15.2377 7.24967 15.8335H6.70801C5.80884 15.8335 5.08301 15.1077 5.08301 14.2085V12.5835H11.0413C11.6372 12.5835 12.1247 12.096 12.1247 11.5002V7.7085H13.1213C13.5113 7.7085 13.8688 7.91975 14.0638 8.25558L14.9901 9.87516H14.2913C13.9934 9.87516 13.7497 10.1189 13.7497 10.4168V12.0418C13.7497 12.3397 13.9934 12.5835 14.2913 12.5835H15.9163Z" stroke="#FF6E41" stroke-linecap="round" stroke-linejoin="round"/>
<path d="M8.33333 16.9167C8.93164 16.9167 9.41667 16.4316 9.41667 15.8333C9.41667 15.235 8.93164 14.75 8.33333 14.75C7.73502 14.75 7.25 15.235 7.25 15.8333C7.25 16.4316 7.73502 16.9167 8.33333 16.9167Z" stroke="#FF6E41" stroke-linecap="round" stroke-linejoin="round"/>
<path d="M12.6663 16.9167C13.2646 16.9167 13.7497 16.4316 13.7497 15.8333C13.7497 15.235 13.2646 14.75 12.6663 14.75C12.068 14.75 11.583 15.235 11.583 15.8333C11.583 16.4316 12.068 16.9167 12.6663 16.9167Z" stroke="#FF6E41" stroke-linecap="round" stroke-linejoin="round"/>
<path d="M15.9167 11.5V12.5833H14.2917C13.9938 12.5833 13.75 12.3396 13.75 12.0417V10.4167C13.75 10.1187 13.9938 9.875 14.2917 9.875H14.9904L15.9167 11.5Z" stroke="#FF6E41" stroke-linecap="round" stroke-linejoin="round"/>
</svg>
