<svg width="13" height="13" viewBox="0 0 13 13" fill="none" xmlns="http://www.w3.org/2000/svg">
<path d="M6.50033 6.49992C7.9961 6.49992 9.20866 5.28736 9.20866 3.79158C9.20866 2.29581 7.9961 1.08325 6.50033 1.08325C5.00455 1.08325 3.79199 2.29581 3.79199 3.79158C3.79199 5.28736 5.00455 6.49992 6.50033 6.49992Z" stroke="#90A3BF" stroke-width="1.5" stroke-linecap="round" stroke-linejoin="round"/>
<path d="M1.84668 11.9167C1.84668 9.82042 3.93209 8.125 6.49959 8.125C7.01959 8.125 7.52335 8.19541 7.9946 8.32541" stroke="#90A3BF" stroke-width="1.5" stroke-linecap="round" stroke-linejoin="round"/>
<path d="M11.9163 9.74992C11.9163 10.1562 11.8026 10.5408 11.6022 10.8658C11.4884 11.0608 11.3422 11.2341 11.1743 11.3749C10.7951 11.7162 10.2968 11.9166 9.74967 11.9166C8.95884 11.9166 8.27092 11.4941 7.89717 10.8658C7.69675 10.5408 7.58301 10.1562 7.58301 9.74992C7.58301 9.06742 7.89717 8.45534 8.39551 8.05992C8.76926 7.762 9.24051 7.58325 9.74967 7.58325C10.9468 7.58325 11.9163 8.55284 11.9163 9.74992Z" stroke="#90A3BF" stroke-width="1.5" stroke-miterlimit="10" stroke-linecap="round" stroke-linejoin="round"/>
</svg>
