<svg width="25" height="25" viewBox="0 0 25 25" fill="none" xmlns="http://www.w3.org/2000/svg">
<path d="M18.9619 19.6293H18.2019C17.4019 19.6293 16.6419 19.9393 16.0819 20.4993L14.3719 22.1893C13.5919 22.9593 12.3219 22.9593 11.5419 22.1893L9.83191 20.4993C9.27191 19.9393 8.50191 19.6293 7.71191 19.6293H6.96191C5.30191 19.6293 3.96191 18.2993 3.96191 16.6593V5.74927C3.96191 4.10927 5.30191 2.7793 6.96191 2.7793H18.9619C20.6219 2.7793 21.9619 4.10927 21.9619 5.74927V16.6593C21.9619 18.2893 20.6219 19.6293 18.9619 19.6293Z" stroke="#A8A8A8" stroke-width="1.5" stroke-miterlimit="10" stroke-linecap="round" stroke-linejoin="round"/>
<path d="M12.9619 10.7693C14.2487 10.7693 15.2919 9.72615 15.2919 8.43933C15.2919 7.15251 14.2487 6.10938 12.9619 6.10938C11.675 6.10938 10.6318 7.15251 10.6318 8.43933C10.6318 9.72615 11.675 10.7693 12.9619 10.7693Z" stroke="#A8A8A8" stroke-width="1.5" stroke-linecap="round" stroke-linejoin="round"/>
<path d="M16.9619 16.4294C16.9619 14.6294 15.1719 13.1694 12.9619 13.1694C10.7519 13.1694 8.96191 14.6294 8.96191 16.4294" stroke="#A8A8A8" stroke-width="1.5" stroke-linecap="round" stroke-linejoin="round"/>
</svg>
