<svg width="18" height="16" viewBox="0 0 18 16" fill="none" xmlns="http://www.w3.org/2000/svg">
<path d="M8.54169 8.49967C6.28522 8.49967 4.44873 6.77967 4.44873 4.66634C4.44873 2.55301 6.28522 0.833008 8.54169 0.833008C10.7982 0.833008 12.6347 2.55301 12.6347 4.66634C12.6347 6.77967 10.7982 8.49967 8.54169 8.49967ZM8.54169 1.83301C6.87603 1.83301 5.51646 3.10634 5.51646 4.66634C5.51646 6.22634 6.87603 7.49967 8.54169 7.49967C10.2073 7.49967 11.5669 6.22634 11.5669 4.66634C11.5669 3.10634 10.2073 1.83301 8.54169 1.83301Z" fill="#F74A4A"/>
<path d="M2.42742 15.1667C2.13557 15.1667 1.89355 14.94 1.89355 14.6667C1.89355 11.82 4.87608 9.5 8.54195 9.5C9.26088 9.5 9.96558 9.58668 10.6489 9.76668C10.9337 9.84002 11.0974 10.1133 11.0191 10.38C10.9408 10.6467 10.6489 10.8 10.3642 10.7267C9.78051 10.5734 9.16835 10.5 8.54195 10.5C5.46689 10.5 2.96128 12.3667 2.96128 14.6667C2.96128 14.94 2.71927 15.1667 2.42742 15.1667Z" fill="#F74A4A"/>
<path d="M12.8128 15.1663C11.9728 15.1663 11.1756 14.873 10.5563 14.3464C10.3072 14.1464 10.0865 13.8997 9.91567 13.6263C9.60247 13.1463 9.43164 12.5797 9.43164 11.9997C9.43164 11.1663 9.77331 10.3863 10.3855 9.79301C11.0261 9.17301 11.8874 8.83301 12.8128 8.83301C13.7809 8.83301 14.6991 9.21969 15.3255 9.88635C15.8807 10.4664 16.1939 11.213 16.1939 11.9997C16.1939 12.253 16.1583 12.5063 16.0872 12.7463C16.016 13.0463 15.8807 13.3597 15.6956 13.633C15.1048 14.5797 13.9944 15.1663 12.8128 15.1663ZM12.8128 9.83301C12.1793 9.83301 11.5956 10.0663 11.1543 10.4863C10.7343 10.893 10.4994 11.4263 10.4994 11.9997C10.4994 12.393 10.6133 12.7797 10.8339 13.113C10.9478 13.2997 11.0973 13.4663 11.2681 13.6063C11.6952 13.973 12.2433 14.173 12.8128 14.173C13.6171 14.173 14.3788 13.773 14.7916 13.1263C14.9126 12.9397 15.0052 12.7264 15.055 12.5197C15.1048 12.3464 15.1262 12.1797 15.1262 12.0063C15.1262 11.473 14.9127 10.9597 14.5283 10.5597C14.1012 10.093 13.4748 9.83301 12.8128 9.83301Z" fill="#F74A4A"/>
<path d="M12.0438 13.1999C11.9086 13.1999 11.7733 13.1533 11.6665 13.0533C11.4601 12.86 11.4601 12.54 11.6665 12.3466L13.1685 10.9399C13.3749 10.7466 13.7166 10.7466 13.923 10.9399C14.1294 11.1333 14.1294 11.4533 13.923 11.6466L12.4211 13.0533C12.3143 13.1533 12.179 13.1999 12.0438 13.1999Z" fill="#F74A4A"/>
<path d="M13.5672 13.2136C13.432 13.2136 13.2967 13.1669 13.19 13.0669L11.688 11.6603C11.4816 11.4669 11.4816 11.1469 11.688 10.9536C11.8945 10.7603 12.2361 10.7603 12.4426 10.9536L13.9445 12.3603C14.1509 12.5536 14.1509 12.8736 13.9445 13.0669C13.8377 13.1669 13.7025 13.2136 13.5672 13.2136Z" fill="#F74A4A"/>
</svg>
