<svg xmlns="http://www.w3.org/2000/svg" width="18" height="14" viewBox="0 0 18 14" fill="none">
  <g clip-path="url(#clip0_853_9521)">
    <path d="M3.27279 13.9276V13.0015C3.27279 12.6465 3.05665 12.415 2.68617 12.415C2.50097 12.415 2.3003 12.4767 2.16136 12.6774C2.05336 12.5076 1.89902 12.415 1.66748 12.415C1.51308 12.415 1.35881 12.4613 1.23527 12.6311V12.4459H0.911133V13.9276H1.23527V13.1095C1.23527 12.8472 1.37421 12.7237 1.59035 12.7237C1.80635 12.7237 1.91449 12.8626 1.91449 13.1095V13.9276H2.23863V13.1095C2.23863 12.8472 2.3929 12.7237 2.59357 12.7237C2.80971 12.7237 2.91771 12.8626 2.91771 13.1095V13.9276H3.27279ZM8.07309 12.4459H7.54835V11.9982H7.22421V12.4459H6.93094V12.7391H7.22414V13.4183C7.22414 13.7579 7.36308 13.9585 7.73355 13.9585C7.87249 13.9585 8.02676 13.9122 8.1349 13.8505L8.04223 13.5726C7.94963 13.6343 7.84162 13.6498 7.76442 13.6498C7.61009 13.6498 7.54835 13.5572 7.54835 13.4028V12.7391H8.07309V12.4459ZM10.8206 12.4149C10.6354 12.4149 10.512 12.5076 10.4348 12.6311V12.4459H10.1106V13.9276H10.4348V13.0941C10.4348 12.8472 10.5428 12.7083 10.7434 12.7083C10.8052 12.7083 10.8824 12.7237 10.9441 12.7391L11.0367 12.4305C10.975 12.415 10.8824 12.415 10.8206 12.415M6.66853 12.5694C6.51412 12.4613 6.29805 12.4151 6.06652 12.4151C5.69611 12.4151 5.44917 12.6003 5.44917 12.8935C5.44917 13.1405 5.63438 13.2794 5.95852 13.3257L6.11285 13.3412C6.28266 13.372 6.37526 13.4183 6.37526 13.4955C6.37526 13.6035 6.25179 13.6808 6.03565 13.6808C5.81951 13.6808 5.64977 13.6035 5.5417 13.5264L5.38737 13.7734C5.55717 13.8968 5.78871 13.9586 6.02018 13.9586C6.45239 13.9586 6.6994 13.758 6.6994 13.4801C6.6994 13.2177 6.49873 13.0787 6.18998 13.0325L6.03565 13.017C5.89671 13.0015 5.78871 12.9707 5.78871 12.8781C5.78871 12.7701 5.89671 12.7083 6.06652 12.7083C6.25179 12.7083 6.43699 12.7855 6.52959 12.8318L6.66853 12.5694ZM15.2815 12.4151C15.0962 12.4151 14.9727 12.5077 14.8955 12.6311V12.4459H14.5714V13.9277H14.8955V13.0942C14.8955 12.8473 15.0036 12.7083 15.2042 12.7083C15.266 12.7083 15.3432 12.7238 15.4049 12.7392L15.4975 12.4305C15.4358 12.4151 15.3432 12.4151 15.2815 12.4151ZM11.1448 13.1868C11.1448 13.6344 11.4534 13.9586 11.932 13.9586C12.1481 13.9586 12.3024 13.9123 12.4567 13.7888L12.3024 13.5264C12.1789 13.619 12.0555 13.6653 11.9165 13.6653C11.6541 13.6653 11.4689 13.4801 11.4689 13.1868C11.4689 12.909 11.6541 12.7237 11.9165 12.7083C12.0555 12.7083 12.1789 12.7546 12.3024 12.8473L12.4567 12.5849C12.3024 12.4613 12.1481 12.4151 11.932 12.4151C11.4534 12.4151 11.1448 12.7392 11.1448 13.1868ZM14.1392 13.1868V12.4459H13.8151V12.6311C13.707 12.4923 13.5527 12.4151 13.352 12.4151C12.9353 12.4151 12.6111 12.7392 12.6111 13.1868C12.6111 13.6344 12.9353 13.9586 13.352 13.9586C13.5681 13.9586 13.7225 13.8814 13.8151 13.7425V13.9277H14.1392V13.1868ZM12.9507 13.1868C12.9507 12.9244 13.1205 12.7083 13.3983 12.7083C13.6607 12.7083 13.846 12.909 13.846 13.1868C13.846 13.4492 13.6607 13.6653 13.3983 13.6653C13.1205 13.6498 12.9507 13.4492 12.9507 13.1868ZM9.07645 12.4151C8.64424 12.4151 8.3355 12.7237 8.3355 13.1868C8.3355 13.6499 8.64417 13.9586 9.09185 13.9586C9.30792 13.9586 9.52406 13.8968 9.69387 13.758L9.53946 13.5264C9.41599 13.619 9.26166 13.6808 9.10732 13.6808C8.90665 13.6808 8.70598 13.5881 8.65964 13.3257H9.7556V13.2023C9.77107 12.7237 9.49327 12.4151 9.07645 12.4151ZM9.07638 12.6929C9.27699 12.6929 9.41599 12.8164 9.44679 13.0479H8.67504C8.70591 12.8473 8.84484 12.6929 9.07638 12.6929ZM17.1182 13.1868V11.8594H16.794V12.6311C16.686 12.4923 16.5316 12.4151 16.3309 12.4151C15.9142 12.4151 15.5901 12.7392 15.5901 13.1868C15.5901 13.6344 15.9142 13.9586 16.3309 13.9586C16.5471 13.9586 16.7014 13.8814 16.794 13.7425V13.9277H17.1182V13.1868ZM15.9297 13.1868C15.9297 12.9244 16.0994 12.7083 16.3773 12.7083C16.6397 12.7083 16.8249 12.909 16.8249 13.1868C16.8249 13.4492 16.6397 13.6653 16.3773 13.6653C16.0994 13.6498 15.9297 13.4492 15.9297 13.1868ZM5.09402 13.1868V12.4459H4.76988V12.6311C4.66181 12.4923 4.50748 12.4151 4.3068 12.4151C3.89006 12.4151 3.56592 12.7392 3.56592 13.1868C3.56592 13.6344 3.89006 13.9586 4.3068 13.9586C4.52295 13.9586 4.67728 13.8814 4.76988 13.7425V13.9277H5.09402V13.1868ZM3.89006 13.1868C3.89006 12.9244 4.05987 12.7083 4.33767 12.7083C4.60008 12.7083 4.78535 12.909 4.78535 13.1868C4.78535 13.4492 4.60008 13.6653 4.33767 13.6653C4.05987 13.6498 3.89006 13.4492 3.89006 13.1868Z" fill="white"/>
    <path d="M6.56055 1.19336H11.4227V9.92976H6.56055V1.19336Z" fill="#FF5F00"/>
    <path d="M6.86876 5.56063C6.86876 3.78559 7.70224 2.21116 8.98334 1.1924C8.04185 0.451516 6.85336 0.00390625 5.5568 0.00390625C2.48505 0.00390625 0 2.48896 0 5.56063C0 8.63231 2.48505 11.1174 5.55673 11.1174C6.85329 11.1174 8.04178 10.6698 8.98334 9.9288C7.70224 8.92551 6.86876 7.33567 6.86876 5.56063Z" fill="#EB001B"/>
    <path d="M17.9824 5.56063C17.9824 8.63223 15.4973 11.1174 12.4256 11.1174C11.1291 11.1174 9.94058 10.6698 8.99902 9.9288C10.2956 8.91011 11.1137 7.33567 11.1137 5.56063C11.1137 3.78559 10.2801 2.21116 8.99902 1.1924C9.94051 0.451516 11.1291 0.00390625 12.4256 0.00390625C15.4973 0.00390625 17.9824 2.50443 17.9824 5.56063Z" fill="#F79E1B"/>
  </g>
  <defs>
    <clipPath id="clip0_853_9521">
      <rect width="18" height="13.9922" fill="white" transform="translate(0 0.00390625)"/>
    </clipPath>
  </defs>
</svg>