<svg xmlns="http://www.w3.org/2000/svg" width="20" height="8" viewBox="0 0 20 8" fill="none">
  <path d="M14.541 1.1866C14.0759 1.01813 13.5847 0.933162 13.09 0.935598C11.49 0.935598 10.36 1.7416 10.352 2.8986C10.342 3.7486 11.155 4.2276 11.77 4.5116C12.401 4.8036 12.612 4.9876 12.61 5.2486C12.606 5.6456 12.106 5.8256 11.641 5.8256C11.002 5.8256 10.653 5.7366 10.116 5.5136L9.917 5.4206L9.69 6.7526C10.079 6.9146 10.78 7.0536 11.504 7.0656C13.205 7.0656 14.317 6.2646 14.33 5.0336C14.344 4.3546 13.904 3.8416 12.978 3.4176C12.415 3.1426 12.066 2.9586 12.066 2.6796C12.066 2.4326 12.365 2.1686 12.99 2.1686C13.406 2.15853 13.8193 2.23658 14.203 2.3976L14.353 2.4646L14.58 1.1776L14.541 1.1866ZM18.693 1.0436H17.443C17.054 1.0436 16.761 1.1506 16.591 1.5366L14.187 6.9826H15.888L16.228 6.0896L18.304 6.0916C18.353 6.3006 18.503 6.9826 18.503 6.9826H20.003L18.693 1.0436ZM8.051 0.993597H9.672L8.658 6.9356H7.039L8.051 0.991598V0.993597ZM3.936 4.2686L4.104 5.0936L5.688 1.0436H7.405L4.854 6.9746H3.141L1.741 1.9526C1.71823 1.86983 1.66501 1.79874 1.592 1.7536C1.08719 1.49341 0.552595 1.29562 0 1.1646L0.022 1.0396H2.631C2.985 1.0536 3.27 1.1646 3.365 1.5426L3.935 4.2716L3.936 4.2686ZM16.693 4.8746L17.339 3.2126C17.331 3.2306 17.472 2.8696 17.554 2.6466L17.665 3.1596L18.04 4.8736H16.692L16.693 4.8746Z" fill="white"/>
</svg>